<?xml version="1.0" encoding="UTF-8" standalone="no"?>
<svg width="203px" height="115px" viewBox="0 0 203 115" version="1.1" xmlns="http://www.w3.org/2000/svg" xmlns:xlink="http://www.w3.org/1999/xlink">
    <!-- Generator: Sketch 45.2 (43514) - http://www.bohemiancoding.com/sketch -->
    <title>Artboard 3</title>
    <desc>Created with Sketch.</desc>
    <defs></defs>
    <g id="Experiments" stroke="none" stroke-width="1" fill="none" fill-rule="evenodd">
        <g id="Artboard-3" fill="#FFFFFF">
            <path d="M2,114.603125 L2,98.415625 L5.36874994,98.415625 L5.36874994,104.989062 L12.0624998,104.989062 L12.0624998,98.415625 L15.4312498,98.415625 L15.4312498,114.603125 L12.0624998,114.603125 L12.0624998,107.220312 L5.36874994,107.220312 L5.36874994,114.603125 L2,114.603125 Z M27.3281246,114.603125 L27.3281246,107.821875 L21.8921872,98.415625 L25.6109372,98.415625 L29.5593746,105.251562 L33.682812,98.415625 L36.351562,98.415625 L30.6968746,107.8 L30.6968746,114.603125 L27.3281246,114.603125 Z M42.8562494,114.603125 L42.8562494,98.415625 L48.4999993,98.415625 C50.4687592,98.415625 51.8742138,98.7455696 52.7164055,99.4054687 C53.5585972,100.065368 53.9796868,101.168221 53.9796868,102.714062 C53.9796868,104.464071 53.4164111,105.825776 52.289843,106.799219 C51.1632749,107.772661 49.5864678,108.259375 47.5593744,108.259375 L46.1593744,108.259375 L46.1593744,114.603125 L42.8562494,114.603125 Z M46.1593744,106.039062 L46.8156244,106.039062 C47.9677134,106.039062 48.8773398,105.771096 49.5445306,105.235156 C50.2117214,104.699216 50.5453118,103.971879 50.5453118,103.053125 C50.5453118,101.441659 49.5208429,100.635937 47.4718744,100.635937 L46.1593744,100.635937 L46.1593744,106.039062 Z M60.5937492,114.603125 L60.5937492,98.415625 L70.7109365,98.415625 L70.7109365,100.635937 L63.9624991,100.635937 L63.9624991,105.153125 L69.4968741,105.153125 L69.4968741,107.31875 L63.9624991,107.31875 L63.9624991,112.30625 L71.224999,112.30625 L71.224999,114.603125 L60.5937492,114.603125 Z M78.046874,114.603125 L78.046874,98.415625 L84.1062489,98.415625 C87.3948069,98.415625 89.0390613,99.7536324 89.0390613,102.429687 C89.0390613,103.428651 88.7601578,104.338277 88.2023426,105.158594 C87.6445273,105.97891 86.877087,106.60781 85.8999988,107.045312 L91.1937488,114.603125 L87.0921863,114.603125 L83.0781239,107.985937 L81.2187489,107.985937 L81.2187489,114.603125 L78.046874,114.603125 Z M81.2187489,105.765625 L81.9953114,105.765625 C84.4380319,105.765625 85.6593738,104.777614 85.6593738,102.801562 C85.6593738,101.357805 84.5692806,100.635937 82.3890614,100.635937 L81.2187489,100.635937 L81.2187489,105.765625 Z M97.5015612,114.603125 L97.5015612,98.415625 L100.870311,98.415625 L100.870311,114.603125 L97.5015612,114.603125 Z M116.026561,115.007812 C113.569257,115.007812 111.604173,114.234903 110.131249,112.689062 C108.658325,111.143221 107.921874,109.083346 107.921874,106.509375 C107.921874,103.906237 108.66197,101.83907 110.142186,100.307812 C111.622402,98.7765548 113.620298,98.0109375 116.135936,98.0109375 C118.63699,98.0109375 120.629418,98.7765548 122.11328,100.307812 C123.597141,101.83907 124.339061,103.895299 124.339061,106.476562 C124.339061,109.116159 123.597141,111.197909 122.11328,112.721875 C120.629418,114.245841 118.600532,115.007812 116.026561,115.007812 Z M116.070311,112.776562 C117.514068,112.776562 118.657025,112.209641 119.499217,111.075781 C120.341409,109.941921 120.762498,108.405218 120.762498,106.465625 C120.762498,104.584365 120.339586,103.075006 119.493748,101.9375 C118.647911,100.799994 117.528651,100.23125 116.135936,100.23125 C114.728637,100.23125 113.603909,100.799994 112.761717,101.9375 C111.919526,103.075006 111.498436,104.595303 111.498436,106.498437 C111.498436,108.386988 111.917703,109.905463 112.756249,111.053906 C113.594794,112.202349 114.699471,112.776562 116.070311,112.776562 Z M131.368748,114.603125 L131.368748,98.415625 L134.332811,98.415625 L141.835936,109.473437 L141.835936,98.415625 L144.537498,98.415625 L144.537498,114.603125 L141.518748,114.603125 L134.070311,103.545312 L134.070311,114.603125 L131.368748,114.603125 Z M152.77031,114.482812 L152.77031,112.054687 C154.374485,112.674482 155.697909,112.984375 156.740623,112.984375 C157.710419,112.984375 158.488797,112.736461 159.075779,112.240625 C159.662761,111.744789 159.956248,111.0849 159.956248,110.260937 C159.956248,108.124468 158.392201,107.05625 155.26406,107.05625 L154.268748,107.05625 L154.268748,105.120312 L155.110935,105.109375 C158.0422,105.109375 159.50781,104.15053 159.50781,102.232812 C159.50781,100.76718 158.603653,100.034375 156.79531,100.034375 C155.606763,100.034375 154.338026,100.336976 152.98906,100.942187 L152.98906,98.7328125 C154.410943,98.2442684 155.909365,98 157.484373,98 C159.154173,98 160.461191,98.3427049 161.405467,99.028125 C162.349742,99.7135451 162.821873,100.661452 162.821873,101.871875 C162.821873,103.782301 161.629697,105.131246 159.24531,105.91875 C161.972407,106.545836 163.335935,108.004155 163.335935,110.29375 C163.335935,111.744799 162.789066,112.893225 161.69531,113.739062 C160.601555,114.5849 159.11407,115.007812 157.23281,115.007812 C155.635927,115.007812 154.148442,114.832814 152.77031,114.482812 Z M173.83281,106.017187 C174.846357,104.792181 176.144261,104.179687 177.72656,104.179687 C179.170317,104.179687 180.366139,104.655464 181.31406,105.607031 C182.261981,106.558598 182.735935,107.759888 182.735935,109.210937 C182.735935,110.909904 182.189066,112.300776 181.09531,113.383593 C180.001555,114.466411 178.594277,115.007812 176.873435,115.007812 C174.860925,115.007812 173.289587,114.291413 172.159373,112.858593 C171.029159,111.425774 170.46406,109.433346 170.46406,106.88125 C170.46406,104.073944 171.107543,101.891935 172.394529,100.335156 C173.681515,98.7783776 175.488007,98 177.81406,98 C178.907816,98 180.264052,98.196873 181.88281,98.590625 L181.88281,100.953125 C180.409886,100.33333 179.090108,100.023437 177.923435,100.023437 C176.625512,100.023437 175.619272,100.548432 174.904685,101.598437 C174.190098,102.648443 173.83281,104.121345 173.83281,106.017187 Z M179.498435,109.746875 C179.498435,108.645828 179.25599,107.774482 178.771091,107.132812 C178.286193,106.491142 177.628127,106.170312 176.796873,106.170312 C176.002077,106.170312 175.333073,106.461976 174.789841,107.045312 C174.24661,107.628649 173.974998,108.350516 173.974998,109.210937 C173.974998,110.341151 174.241141,111.2526 174.773435,111.945312 C175.305729,112.638024 176.002077,112.984375 176.862498,112.984375 C177.664585,112.984375 178.304422,112.690888 178.782029,112.103906 C179.259635,111.516924 179.498435,110.731255 179.498435,109.746875 Z M195.431247,115.007812 C193.593738,115.007812 192.100784,114.22032 190.952341,112.645312 C189.803898,111.070304 189.229685,109.025012 189.229685,106.509375 C189.229685,103.964571 189.805721,101.911987 190.95781,100.351562 C192.109899,98.791138 193.626551,98.0109375 195.50781,98.0109375 C197.374486,98.0109375 198.885669,98.7893151 200.041404,100.346094 C201.197138,101.902872 201.774997,103.942696 201.774997,106.465625 C201.774997,109.054179 201.197138,111.124992 200.041404,112.678125 C198.885669,114.231257 197.348965,115.007812 195.431247,115.007812 Z M195.46406,112.984375 C197.381778,112.984375 198.340622,110.826063 198.340622,106.509375 C198.340622,102.192687 197.396361,100.034375 195.50781,100.034375 C193.619259,100.034375 192.674997,102.189041 192.674997,106.498437 C192.674997,110.822417 193.604676,112.984375 195.46406,112.984375 Z" id="HYPERION360"></path>
            <path d="M80.3761759,74.0725 C81.3065555,64.6173285 89.2817782,57.2304 98.9815,57.2304 C108.682161,57.2304 116.656558,64.6173285 117.586834,74.0725 L202.4357,74.0725 L202.4357,77.7785 L0.2397,77.7785 L0.2397,74.0725 L80.3761759,74.0725 Z M100.8346,44.0069 L97.1286,44.0069 L97.1286,0.8039 L100.8346,0.8039 L100.8346,44.0069 Z M87.1124,44.7209 L83.6684,46.0909 L78.2594,32.4909 L81.7024,31.1209 L87.1124,44.7209 Z M67.2568,62.4388 L65.9728,65.9158 L52.2428,60.8448 L53.5268,57.3678 L67.2568,62.4388 Z M76.4815,51.7029 L73.8535,54.3159 L46.1135,26.4089 L48.7415,23.7959 L76.4815,51.7029 Z M111.1815,44.7209 L116.5915,31.1209 L120.0345,32.4909 L114.6255,46.0909 L111.1815,44.7209 Z M131.037,62.4388 L144.767,57.3678 L146.051,60.8448 L132.321,65.9158 L131.037,62.4388 Z M121.8124,51.7029 L149.5524,23.7959 L152.1804,26.4089 L124.4404,54.3159 L121.8124,51.7029 Z" id="Combined-Shape"></path>
        </g>
    </g>
</svg>